<?xml version="1.0" encoding="UTF-8"?>
<svg id="Layer_2" data-name="Layer 2" xmlns="http://www.w3.org/2000/svg" viewBox="0 0 233.61 210.46">
  <defs>
    <style>
      .cls-1 {
        fill: #bbf;
      }

      .cls-1, .cls-2, .cls-3, .cls-4 {
        stroke-width: 0px;
      }

      .cls-2 {
        fill: #eef4f7;
      }

      .cls-3 {
        fill: #66a;
      }

      .cls-4 {
        fill: #fff;
      }
    </style>
  </defs>
  <g id="Layer_1-2" data-name="Layer 1">
    <g>
      <path class="cls-1" d="M121.83,56.7c-7.99-.03-15.76,1.24-23.25,4.04-24.41,9.12-39.8,33.05-37.99,59.04.03.42.03.85.04,1.27-.4,1.54-1.34,2.26-2.98,2.03-1.6-.22-3.2-.46-4.8-.5-12.2-.32-22.2,4.9-31.06,12.67-4.43,3.88-7.99,8.56-11.07,13.62-.88,1.44-1.66,3.22-3.76,3.44-8.72-11.36-9.29-28.26-1.4-40.91,5.1-8.18,12.21-13.69,21.56-16.1,1.83-.47,1.94-1.26,1.74-2.84-.83-6.43.12-12.57,3.34-18.29,5.41-9.64,17.69-14.09,27.89-9.85,2.26.94,2.56.33,2.83-1.68,2.68-19.51,20.39-35.99,39.74-37.02,4.27-.23,8.53-.1,12.73.93,1.65.41,3.24.89,4.73,1.71-.58,1.23.08,2.32.43,3.43,1.49,4.7,2.37,9.46,2.41,14.44.03,3.6-.82,7.04-1.12,10.56Z"/>
      <path class="cls-1" d="M97.74,175.24c-.04-6.57-.13-13.15-.09-19.72.01-1.68-.44-2.7-1.91-3.73-14.06-9.81-21.18-23.15-19.43-40.46,1.86-18.37,16.31-34.05,34.5-38,17.39-3.78,37.08,3.36,46.67,16.92.19.27.32.59.47.89.04.59.02,1.18.12,1.76,2.49,14.69.19,28.34-9.64,39.93-7.24,8.54-16.12,14.71-27.68,15.96-1.42.15-2.05.93-2.54,2.12-4.24,10.28-11.59,17.95-20.48,24.32ZM146.98,115.83c0-4.98-4.31-9.62-9-9.66-4.78-.04-9.32,4.29-9.42,8.96-.11,5.15,4.4,9.72,9.51,9.67,4.88-.05,8.89-4.1,8.9-8.97ZM94.16,115.41c-.1,4.97,3.93,9.23,8.88,9.36,5.23.13,9.37-3.83,9.43-9.03.05-4.93-4.09-9.4-8.85-9.55-4.85-.15-9.35,4.23-9.45,9.22Z"/>
      <path class="cls-3" d="M6.95,152.31c2.09-.22,2.88-2,3.76-3.44,3.08-5.05,6.64-9.74,11.07-13.62,8.86-7.77,18.87-12.99,31.06-12.67,1.6.04,3.21.29,4.8.5,1.64.23,2.58-.49,2.98-2.03,1.63,15.43,8.24,28.31,19.93,38.53.94.82,1.16,1.69,1.15,2.87-.02,10.17.21,20.35-.03,30.51-.11,4.73,4.11,7.48,8.12,6.86,12.48-1.92,23.91-6.15,33.2-15.08.71-.68,1.47-1.07,2.5-1.07,20.07.02,40.15.01,60.24.01-6.65,10.39-40.71,25.11-61.57,26.51-29.38,1.97-54.79-7.81-77.19-26.62,5.77,0,11.55,0,17.32,0,4.5,0,7.05-2.37,7.32-6.76.28-4.49-2.27-8.01-6.5-8.28-4.68-.3-9.4-.13-14.1-.15-6.07-.03-12.15.14-18.2-.13-11.52-.5-19.75-6.56-25.86-15.95Z"/>
      <path class="cls-3" d="M188.54,58.9c11.04,8.19,16.48,19.05,15.45,32.88-.16,2.12.27,2.99,2.46,3.62,16.33,4.69,27.08,18.63,27.16,34.93.09,16.88-10.75,32.33-25.96,37.01-1.72.53-3.46.94-5.26.94-16.84.04-33.67.07-50.51.08-.37,0-.83.18-1.16-.34,10.27-5.89,18.57-13.8,24.23-24.23,9.57-17.62,9.78-35.47.93-53.44-.6-1.22-1.21-2.44-1.81-3.66,2.57-1.63,5.04-3.36,7.05-5.7,5.47-6.37,8.87-13.42,7.43-22.1Z"/>
      <path class="cls-1" d="M10.18,86.39C17.45,46.48,60.1-.33,115.68,0c55.83.34,99.58,44.75,107.17,86.15-2.11-.33-3.12-1.32-3.46-3.52-4.21-27.82-28.11-47.86-56.27-47.2-2.54.06-5.09.51-7.6.95-1.37.24-2.1-.14-2.89-1.3-12.14-17.7-29.24-26.06-50.38-24.61-23.12,1.59-39.57,13.85-49.59,34.69-.84,1.74-1.52,2.94-3.77,2.98-16.04.33-31.06,12.7-34.73,31.13-.18.92-.38,1.84-.5,2.77-.38,3.06-.36,3.06-3.5,4.35Z"/>
      <path class="cls-3" d="M97.74,175.24c8.89-6.37,16.24-14.04,20.48-24.32.49-1.19,1.12-1.97,2.54-2.12,11.56-1.25,20.45-7.43,27.68-15.96,9.82-11.59,12.13-25.24,9.64-39.93-.1-.58-.08-1.17-.12-1.76,5.3,6.21,7.48,13.67,8.52,21.55,2.77,20.92-14.11,42.15-36.11,45.62-1.69.27-2.51,1.05-3.29,2.34-6.17,10.24-15.16,16.94-26.32,20.89-3.05,1.08-3.19.96-3.17-2.21,0-1.36.1-2.73.16-4.09Z"/>
      <path class="cls-1" d="M188.54,58.9c1.44,8.68-1.96,15.73-7.43,22.1-2.01,2.34-4.48,4.07-7.05,5.7-7.43-12.19-17.9-20.71-31.16-25.87-1.56-.61-3.15-1.14-4.72-1.71.64-.94,1.69-.92,2.64-1.26,1.71-.62,4-.5,4.6-2.92.58-.07,1.15-.14,1.73-.2.29-.12.58-.24.87-.36,13.95-5.75,27.24-4.47,39.86,3.79.27.18.45.48.67.73Z"/>
      <path class="cls-3" d="M145.41,54.94c-.6,2.41-2.89,2.3-4.6,2.92-.94.34-2,.31-2.64,1.26-5.36-1.39-10.81-2.22-16.35-2.42.29-3.53,1.15-6.96,1.12-10.56-.04-4.98-.92-9.74-2.41-14.44-.35-1.11-1.01-2.2-.43-3.43,3.84.73,7.05,2.77,10.13,4.99,7.56,5.46,12.76,12.61,15.17,21.68Z"/>
      <path class="cls-2" d="M148.01,54.38c-.29.12-.58.24-.87.36.29-.12.58-.24.87-.36Z"/>
      <path class="cls-4" d="M146.98,115.83c0,4.88-4.03,8.93-8.9,8.97-5.12.05-9.62-4.53-9.51-9.67.1-4.68,4.64-9,9.42-8.96,4.68.04,9.01,4.68,9,9.66Z"/>
      <path class="cls-4" d="M94.16,115.41c.1-4.99,4.6-9.37,9.45-9.22,4.77.15,8.9,4.61,8.85,9.55-.05,5.2-4.19,9.16-9.43,9.03-4.94-.13-8.98-4.38-8.88-9.36Z"/>
    </g>
  </g>
</svg>